<?xml version="1.0" standalone="no"?>
<!DOCTYPE svg PUBLIC "-//W3C//DTD SVG 20010904//EN"
 "http://www.w3.org/TR/2001/REC-SVG-20010904/DTD/svg10.dtd">
<svg version="1.0" xmlns="http://www.w3.org/2000/svg"
 width="96.000000pt" height="96.000000pt" viewBox="0 0 96.000000 96.000000"
 preserveAspectRatio="xMidYMid meet">

<g transform="translate(0.000000,96.000000) scale(0.100000,-0.100000)"
fill="#000000" stroke="none">
<path d="M0 480 l0 -480 480 0 480 0 0 480 0 480 -480 0 -480 0 0 -480z m743
310 l-6 -71 36 36 c32 32 40 35 91 35 l57 0 -3 -62 -3 -63 -47 -3 c-54 -3 -60
-14 -23 -38 18 -12 36 -15 65 -10 l40 6 0 -59 c0 -52 -2 -59 -22 -65 -62 -16
-119 2 -157 50 l-21 27 0 -42 0 -41 -60 0 -60 0 0 185 0 185 59 0 60 0 -6 -70z
m-504 -9 c17 -10 21 -21 21 -61 l0 -50 -37 14 c-57 21 -87 26 -103 16 -11 -6
-7 -10 16 -15 110 -23 144 -45 144 -94 0 -66 -71 -107 -170 -98 -88 8 -100 17
-100 82 0 30 2 55 5 55 3 0 16 -7 29 -15 28 -19 116 -32 116 -17 0 5 -21 13
-47 17 -53 8 -103 50 -103 87 0 32 26 67 64 84 35 16 130 13 165 -5z m288 3
c81 -33 117 -135 76 -214 -54 -104 -239 -104 -294 0 -73 136 70 276 218 214z
m-397 -336 c53 -28 80 -75 80 -139 0 -85 -68 -149 -157 -149 l-43 0 0 50 c0
44 3 50 20 50 27 0 70 43 70 69 0 27 -34 45 -59 31 -11 -5 -22 -10 -25 -10 -8
0 -7 105 1 113 13 14 70 6 113 -15z m778 2 l42 -19 0 -115 c0 -113 -1 -116
-26 -133 -14 -9 -50 -19 -80 -21 -75 -6 -127 18 -160 73 -82 141 68 286 224
215z m-632 -6 c20 -10 37 -26 40 -40 7 -25 24 -33 24 -11 0 18 39 53 68 62 21
6 22 4 22 -58 0 -71 -5 -77 -66 -77 l-34 0 0 -80 0 -80 -55 0 -55 0 0 150 c0
102 3 150 11 150 6 0 26 -7 45 -16z m242 -16 c12 -12 22 -27 22 -35 0 -20 17
-15 23 6 4 18 61 61 80 61 4 0 7 -29 7 -64 0 -70 -5 -76 -66 -76 l-34 0 0 -80
0 -80 -55 0 -55 0 0 151 0 151 28 -7 c15 -3 37 -16 50 -27z"/>
<path d="M427 676 c-32 -29 -35 -61 -8 -76 42 -22 108 40 85 78 -17 26 -47 25
-77 -2z"/>
<path d="M798 340 c-32 -32 -34 -56 -5 -74 24 -15 69 11 82 48 8 23 6 30 -10
42 -26 20 -32 18 -67 -16z"/>
</g>
</svg>
