<?xml version="1.0" standalone="no"?>
<!DOCTYPE svg PUBLIC "-//W3C//DTD SVG 20010904//EN"
 "http://www.w3.org/TR/2001/REC-SVG-20010904/DTD/svg10.dtd">
<svg version="1.0" xmlns="http://www.w3.org/2000/svg"
 width="2368.000000pt" height="1775.000000pt" viewBox="0 0 2368.000000 1775.000000"
 preserveAspectRatio="xMidYMid meet">

<g transform="translate(0.000000,1775.000000) scale(0.100000,-0.100000)"
fill="#311C3B" stroke="none">
<path d="M15590 13060 l0 -4670 1451 0 1451 0 -6 503 c-4 276 -12 761 -19
1077 -15 745 -16 995 0 1011 14 14 36 -28 148 -281 150 -340 264 -551 440
-815 355 -533 779 -919 1280 -1165 183 -90 295 -135 457 -184 645 -195 1371
-190 2190 15 182 45 440 122 586 175 l102 36 0 1500 c0 1196 -3 1499 -12 1495
-466 -207 -886 -324 -1323 -368 -154 -15 -461 -15 -590 1 -647 77 -1108 384
-1374 916 -52 104 -121 275 -121 300 0 12 138 14 950 14 1062 0 1034 -2 1185
69 186 88 312 229 382 426 l28 80 3 1374 2 1374 -1072 -7 c-601 -4 -1110 -11
-1158 -17 -505 -59 -1016 -319 -1418 -719 -430 -429 -723 -979 -882 -1655 -16
-66 -29 -109 -29 -96 -1 13 60 963 134 2111 74 1148 135 2106 135 2129 l0 41
-1460 0 -1460 0 0 -4670z"/>
<path d="M2960 16154 c-134 -10 -434 -47 -559 -70 -1083 -197 -1840 -689
-2187 -1419 -225 -475 -256 -1087 -79 -1595 219 -630 783 -1098 1660 -1380
278 -89 452 -126 961 -204 862 -133 1087 -192 1154 -301 25 -41 25 -66 0 -98
-88 -112 -591 -185 -1084 -158 -346 18 -608 57 -932 136 -715 176 -1375 511
-1795 913 l-79 75 3 -1324 c3 -1483 -3 -1358 77 -1524 64 -132 166 -241 300
-317 103 -59 492 -188 808 -267 1058 -265 2288 -303 3272 -100 609 126 1124
363 1510 697 513 444 773 1064 747 1782 -11 284 -67 531 -167 730 -287 574
-897 963 -1915 1220 -294 74 -427 98 -935 165 -484 65 -668 94 -840 135 -350
84 -470 156 -470 280 0 53 18 86 75 139 181 167 686 208 1292 106 535 -91
1214 -303 1788 -559 83 -37 282 -135 443 -217 l294 -150 -5 1108 c-4 1025 -5
1113 -22 1173 -53 193 -176 360 -337 458 -117 70 -589 244 -902 331 -374 105
-728 173 -1136 217 -138 15 -799 27 -940 18z"/>
<path d="M10770 16149 c-893 -70 -1556 -282 -2165 -693 -369 -248 -704 -583
-957 -956 -312 -458 -519 -976 -613 -1535 -74 -436 -74 -933 -1 -1366 158
-930 630 -1750 1331 -2313 629 -505 1387 -791 2330 -878 182 -16 746 -16 935
0 1129 100 2024 491 2683 1172 568 586 906 1316 1014 2190 24 199 24 695 0
890 -117 929 -475 1697 -1082 2319 -638 653 -1469 1038 -2496 1157 -160 18
-804 27 -979 13z m956 -2530 c223 -31 424 -135 576 -298 213 -229 293 -558
219 -891 -66 -292 -244 -588 -535 -889 -370 -381 -765 -582 -1176 -598 -231
-9 -425 38 -604 144 -93 56 -233 189 -291 278 -138 211 -183 483 -125 753 46
208 169 452 337 666 81 103 331 349 453 446 282 224 569 356 855 393 65 9 217
6 291 -4z"/>
<path d="M545 7779 c-164 -5 -533 -35 -543 -43 -1 -2 -1 -680 0 -1509 l3
-1506 95 81 c264 223 540 366 820 424 117 25 326 25 440 1 299 -64 526 -238
656 -502 75 -154 98 -253 98 -430 0 -320 -117 -609 -378 -935 -352 -437 -732
-694 -1166 -786 -152 -32 -445 -20 -557 23 -11 4 -13 -224 -13 -1270 l0 -1275
23 -5 c12 -3 101 -14 197 -23 129 -13 265 -18 515 -18 354 0 536 12 824 55
902 132 1664 491 2245 1059 614 599 987 1386 1088 2295 20 183 17 693 -5 875
-46 372 -127 701 -253 1024 -483 1239 -1526 2104 -2859 2371 -409 82 -758 108
-1230 94z"/>
<path d="M20185 7779 c-709 -25 -1329 -164 -1862 -419 -1077 -515 -1826 -1510
-2047 -2720 -51 -282 -61 -393 -61 -740 0 -349 10 -475 61 -750 221 -1200 958
-2182 2029 -2705 766 -374 1707 -516 2705 -409 768 82 1466 334 2021 731 171
122 302 234 477 410 l172 173 0 2501 0 2502 -69 81 c-38 44 -136 146 -217 227
-485 474 -1081 804 -1765 978 -452 114 -905 158 -1444 140z m821 -2553 c295
-62 532 -242 659 -501 163 -331 126 -718 -107 -1119 -107 -183 -365 -479 -563
-644 -600 -501 -1336 -546 -1754 -107 -163 172 -238 353 -248 600 -16 389 171
779 557 1165 365 365 725 569 1095 619 91 13 271 6 361 -13z"/>
<path d="M5150 3777 l0 -3777 1405 0 1405 0 0 2115 0 2114 938 3 937 3 70 24
c252 84 422 254 507 506 l23 70 3 1354 2 1354 -132 -6 c-701 -32 -1322 -363
-1792 -953 -327 -411 -580 -933 -691 -1429 -15 -66 -28 -121 -29 -123 -2 -1
-6 58 -9 131 -17 344 -90 697 -202 977 -352 877 -1136 1363 -2267 1407 l-168
6 0 -3776z"/>
<path d="M10680 3777 l0 -3777 1405 0 1405 0 0 2115 0 2114 938 3 937 3 70 24
c228 76 393 225 482 436 54 127 53 97 53 1526 l0 1322 -132 -6 c-841 -39
-1552 -499 -2050 -1327 -193 -320 -352 -704 -423 -1016 -42 -187 -43 -190 -44
-99 -4 290 -78 700 -175 970 -48 131 -160 357 -234 470 -412 629 -1118 975
-2064 1012 l-168 6 0 -3776z"/>
</g>
</svg>
