<?xml version="1.0" encoding="UTF-8"?>
<svg id="Capa_1" data-name="Capa 1" xmlns="http://www.w3.org/2000/svg" viewBox="0 0 1920 664.85">
  <defs>
    <style>
      .cls-1 {
        fill: #311c3b;
      }
    </style>
  </defs>
  <path class="cls-1" d="M924.51,261.28v61.63c0,9.85-7.99,17.84-17.84,17.84h-41.76v101.49h-67.39v-181.16c32.98-.14,62.99,15.57,63.49,61.93,1.1-12.71,17.63-61.73,63.49-61.73Z"/>
  <path class="cls-1" d="M585.75,433.27c-143.78,52.54-124.49-150.39-124.55,8.97l-69.58-.02v-224.07l70.27.05-6.78,104.93c7.08-40.13,36.45-62.9,63.5-61.84l46.18-.22v62.39c0,9.56-7.75,17.3-17.3,17.3h-44.13c13.01,41.42,60.69,30.91,82.23,20.63,0,0,.15-.09.15-.09v71.97Z"/>
  <path class="cls-1" d="M265.84,257.16c147.21-20.18,163.12,179.54,25.35,184.97-133.84,5.27-140.01-169.25-25.35-184.97ZM311.47,359.26c21.47-29.23-8.74-57.99-39.58-33.54-49.3,39.07,3.47,82.68,39.58,33.54Z"/>
  <path class="cls-1" d="M1143.62,256.88c146.81-20.21,162.68,179.81,25.28,185.24-133.48,5.28-139.63-169.5-25.28-185.24ZM1189.12,359.14c21.42-29.27-8.71-58.07-39.47-33.59-49.16,39.13,3.46,82.8,39.47,33.59Z"/>
  <path class="cls-1" d="M672.06,256.88c146.81-20.21,162.68,179.81,25.28,185.24-133.48,5.28-139.63-169.5-25.28-185.24ZM717.57,359.14c21.42-29.27-8.71-58.07-39.47-33.59-49.16,39.13,3.46,82.8,39.47,33.59Z"/>
  <path class="cls-1" d="M1057.26,261.28v61.63c0,9.85-7.99,17.84-17.84,17.84h-41.76v101.49h-67.39v-181.16c32.98-.14,62.99,15.57,63.49,61.93,1.1-12.71,17.63-61.73,63.49-61.73Z"/>
  <path class="cls-1" d="M168.59,284.79l.12,50.43c-9.05-4.68-11.64-6.01-16.07-8.07-17.56-8.19-52.58-19.75-71.24-13.92-6.53,2.04-9.03,7.57-1.68,10.39,11.6,4.44,31.27,5.06,44.36,7.98,23.88,5.32,52.39,16,54.91,44.35,3.13,35.22-20.87,56.09-52.86,62.95-29.67,6.36-67.88,3.59-96.86-7.58-6.83-2.63-11.26-9.28-11.26-16.6l.02-60.24c19.23,19.32,53.2,29.08,80.61,26.65,3.92-.35,18.09-2.07,11.51-7.25-4.63-3.64-32.48-6.28-40.6-8.29-27.69-6.83-51.79-21.15-51.53-53.12.2-25,17.19-42.06,39.5-50.15,31.56-11.45,69.22-7.1,100.26,6.09,6.56,2.79,10.81,9.25,10.83,16.38Z"/>
</svg>